<svg width="30" height="30" viewBox="0 0 30 30" fill="none" xmlns="http://www.w3.org/2000/svg">
<rect width="30" height="30" rx="15" fill="#F0303F"/>
<path fill-rule="evenodd" clip-rule="evenodd" d="M7.89389 18.9205H4.7356V11.1478H7.89389C9.81634 11.1478 10.9149 11.966 10.9149 13.3296C10.9149 14.0796 10.4342 14.5569 9.74766 14.8296C10.9149 15.1023 11.4641 15.7842 11.4641 16.6705C11.3954 18.1023 10.1596 18.9205 7.89389 18.9205ZM6.86435 15.7161H8.10024C8.85549 15.7161 9.19877 15.9888 9.33607 16.3979C9.33607 16.9433 8.85549 17.2161 8.03156 17.2161H6.86435V15.7161ZM7.89426 12.8523C8.51221 12.8523 8.92411 13.0568 8.92411 13.466C8.92411 13.875 8.64951 14.0796 8.10024 14.1478H6.86435V12.8523H7.89426Z" fill="white"/>
<path d="M15.103 18.9205H13.0432V11.1478H15.103V18.9205Z" fill="white"/>
<path fill-rule="evenodd" clip-rule="evenodd" d="M22.9987 18.9205L22.5868 17.625H19.2225L18.7419 18.8523H16.4762L19.4285 11.0796H22.3122L25.2645 18.8523L22.9987 18.9205ZM20.8698 12.8545L20.8705 12.8523L21.8318 15.8523H19.772L20.5959 13.6023C20.7327 13.2626 20.8014 13.0583 20.8698 12.8545Z" fill="white"/>
</svg>
